<svg width="40" height="45" viewBox="0 0 7 12" fill="none" xmlns="http://www.w3.org/2000/svg">
<path d="M5.3 11.3L0.7 6.7C0.6 6.6 0.529333 6.49167 0.488 6.375C0.446 6.25833 0.425 6.13333 0.425 6C0.425 5.86667 0.446 5.74167 0.488 5.625C0.529333 5.50833 0.6 5.4 0.7 5.3L5.3 0.7C5.48333 0.516666 5.71667 0.425 6 0.425C6.28333 0.425 6.51667 0.516666 6.7 0.7C6.88333 0.883333 6.975 1.11667 6.975 1.4C6.975 1.68333 6.88333 1.91667 6.7 2.1L2.8 6L6.7 9.9C6.88333 10.0833 6.975 10.3167 6.975 10.6C6.975 10.8833 6.88333 11.1167 6.7 11.3C6.51667 11.4833 6.28333 11.575 6 11.575C5.71667 11.575 5.48333 11.4833 5.3 11.3V11.3Z" fill="#901C1C"/>
</svg>
